Coordinates
version=1
nRows=11
nColumns=36
inDegrees=yes

Units are S.I. units (second, meters, Newtons, ...)
If the header above contains a line with 'inDegrees', this indicates whether rotational values are in degrees (yes) or radians (no).

endheader
time	pelvis_tilt	pelvis_list	pelvis_rotation	pelvis_tx	pelvis_ty	pelvis_tz	hip_flexion_r	hip_adduction_r	hip_rotation_r	knee_angle_r	knee_angle_r_beta	ankle_angle_r	subtalar_angle_r	mtp_angle_r	hip_flexion_l	hip_adduction_l	hip_rotation_l	knee_angle_l	knee_angle_l_beta	ankle_angle_l	subtalar_angle_l	mtp_angle_l	lumbar_extension	lumbar_bending	lumbar_rotation	arm_flex_r	arm_add_r	arm_rot_r	elbow_flex_r	pro_sup_r	arm_flex_l	arm_add_l	arm_rot_l	elbow_flex_l	pro_sup_l
      1.93333330	    -11.44503649	     -2.61850357	      2.14881317	      1.14713126	      0.79701491	      0.24659269	     34.33905279	     10.30639047	     -3.31262027	     54.63172457	      0.95350347	     33.74432664	      0.00686375	     -7.49998885	     60.17409791	    -11.19957543	      0.67700383	     23.17358620	      0.40445538	     -8.18781010	    -17.99763876	     -7.49998885	      0.82030864	      5.03004525	     -0.35450354	     26.74908163	     -2.63074672	     59.82857651	    131.81650141	    101.21708632	     30.73496042	      1.99283345	     68.71283335	    120.67695499	    105.48926531
      1.95000000	    -11.29155804	     -2.69593827	      2.01957594	      1.14683203	      0.79965896	      0.24643903	     34.02232679	     10.45378090	     -3.13810849	     54.29692030	      0.94766003	     33.62732320	     -0.16090708	     -7.49999204	     60.08973002	    -11.35195266	      0.68113276	     23.18883057	      0.40472144	     -7.88488104	    -17.94297282	     -7.49999204	      0.60951500	      5.15249850	     -0.31658701	     26.73115991	     -2.51256816	     59.73062364	    131.49285552	    102.48987332	     30.54690160	      2.21704943	     68.38788037	    120.64551866	    107.09807493
      1.96666670	    -11.24923939	     -2.74396649	      1.84077918	      1.14687601	      0.79966252	      0.24624915	     33.66737212	     10.61035683	     -2.86101072	     53.71698372	      0.93753823	     33.62285432	     -0.03325626	     -7.49999250	     60.10943710	    -11.52503662	      0.64854129	     23.09439475	      0.40307323	     -7.41560971	    -17.81097978	     -7.49999250	      0.69741071	      5.18690999	     -0.24340058	     26.75909294	     -2.44074100	     59.13534849	    131.14841468	    102.03505987	     30.37034351	      2.32614193	     68.48915004	    120.72762540	    106.98177510
      1.98333330	    -11.11189517	     -2.82097162	      1.65267596	      1.14655713	      0.80212659	      0.24611828	     33.24359606	     10.80485537	     -2.58544074	     53.14614024	      0.92757513	     33.46288320	     -0.02424856	     -7.49999339	     59.97405907	    -11.70063572	      0.69003813	     23.05301383	      0.40235099	     -7.09771738	    -17.81562582	     -7.49999339	      0.54784992	      5.24598833	     -0.29535146	     26.93671496	     -2.26332854	     58.67002187	    130.73323657	     99.69715483	     30.28735396	      2.33821650	     68.68888579	    121.21692336	    103.99817041
      2.00000000	    -10.64811516	     -2.93771745	      1.51019366	      1.14175941	      0.80432922	      0.24848861	     32.64413449	     11.14213131	     -2.26725315	     52.61747489	      0.91834818	     32.93889316	     -0.58899530	     -7.49999387	     59.52216249	    -12.02428677	      0.48198806	     23.10752193	      0.40330234	     -6.91820789	    -17.31414463	     -7.49999387	     -0.06421727	      5.30237819	     -0.28088439	     27.29732150	     -1.97818541	     57.82344350	    130.06286638	    100.69088007	     30.63073171	      2.21707674	     68.47145334	    121.37241616	    105.14973979
      2.01666670	    -10.60154700	     -2.86772689	      1.36009714	      1.14642864	      0.80497674	      0.24562368	     32.49613751	     11.12446555	     -2.04713591	     52.43160653	      0.91510417	     32.93895331	     -0.52882048	     -7.49999388	     59.41864083	    -12.02340871	      0.38936063	     23.23866284	      0.40559118	     -6.95948770	    -17.34622715	     -7.49999388	      0.14259924	      5.34847865	     -0.42600807	     27.23223927	     -2.05486287	     57.81180025	    130.10168525	    100.70247227	     30.62408097	      2.33980272	     68.47462525	    121.42520248	    105.16107075
      2.03333330	    -10.44089345	     -3.10027095	      1.19891970	      1.14192819	      0.80856317	      0.24886544	     32.08531621	     11.52953765	     -1.76646933	     51.66630145	      0.90174707	     32.43286445	     -0.80413958	     -7.49999403	     59.46640423	    -12.42766723	      0.25742478	     23.38051670	      0.40806700	     -6.99605634	    -17.34499798	     -7.49999403	     -0.21955088	      5.53839423	     -0.33718912	     27.14549710	     -2.10013985	     58.56546676	    130.57241721	    100.94768769	     30.56921981	      2.45715554	     68.37653538	    121.66652212	    105.34708810
      2.05000000	    -10.34752470	     -3.14962773	      1.19941898	      1.14189688	      0.80901383	      0.24910363	     31.80497121	     11.66205935	     -1.62821137	     51.05349518	      0.89105159	     32.15691765	     -0.79307869	     -7.49999447	     59.30909733	    -12.49406654	      0.19062545	     23.15424124	      0.40411775	     -7.11014658	    -17.60174808	     -7.49999447	     -0.45623298	      5.49536843	     -0.56419981	     27.52561875	     -1.82496054	     59.07407501	    130.59567624	    101.13084719	     31.09655770	      2.49113594	     68.02726911	    121.25480036	    105.51538103
      2.06666670	    -10.41740117	     -3.13799128	      1.00974122	      1.14243998	      0.81468255	      0.24880257	     31.45719444	     11.72693248	     -1.34907364	     50.24523462	      0.87694478	     31.94192920	     -0.60274847	     -7.49999450	     59.14080838	    -12.58311476	     -0.04093358	     22.81300907	      0.39816212	     -6.88328734	    -17.50964427	     -7.49999450	     -0.23169686	      5.46828997	     -0.49358041	     27.41973604	     -1.81267288	     59.28033045	    130.59968194	    101.11569280	     31.11029383	      2.27412373	     67.88770825	    121.02812719	    105.44905288
      2.08333330	    -10.01193309	     -3.08965184	      0.91637236	      1.14225721	      0.81623782	      0.24914597	     30.45532172	     11.78655139	     -0.99796141	     49.10986151	      0.85712878	     31.34669340	     -0.70181023	     -7.49999502	     58.63016127	    -12.73329531	     -0.34934360	     22.73946779	      0.39687858	     -6.55602086	    -16.86255251	     -7.49999502	     -0.57989373	      5.40158831	     -0.62947027	     27.82526527	     -1.74433916	     60.03502729	    130.52310291	     99.77396339	     31.89023064	      2.52494868	     67.77969332	    120.29825532	    103.62447603
      2.10000000	     -9.44474895	     -2.96581219	      0.76807810	      1.14265739	      0.82096558	      0.24955972	     29.28708752	     11.84939153	     -0.47600059	     48.04920678	      0.83861686	     30.72382650	     -1.05065267	     -7.49999600	     57.85717272	    -12.88163279	     -0.82766914	     22.89545985	      0.39960116	     -6.94302965	    -16.92190222	     -7.49999600	     -0.86945983	      5.13355898	     -0.76975287	     28.01111389	     -1.62517033	     59.81750677	    130.23907440	    102.09823777	     32.63548174	      2.55647615	     67.72528016	    119.66872612	    105.63052257
